<svg width="425" height="205" viewBox="0 0 425 205" fill="none" xmlns="http://www.w3.org/2000/svg">
<path d="M139.856 3.97532V46.7914H149.826V29.6038H165.239V21.2852H149.826V12.9055H165.851V3.97532H139.856Z" fill="white"/>
<path d="M179.781 3.97532V46.7914H190.118V31.9893H193.298L202.473 46.7914H214.645L203.513 30.6436C209.14 28.5028 212.076 23.8542 212.076 17.9823C212.076 9.7249 206.327 3.97532 195.378 3.97532H179.781ZM194.644 12.7832C198.803 12.7832 201.311 14.8017 201.311 18.3493C201.311 21.8969 198.803 23.9154 194.644 23.9154H190.118V12.7832H194.644Z" fill="white"/>
<path d="M225.5 3.97532V46.7914H236.02V3.97532H225.5Z" fill="white"/>
<path d="M266.5 46.7914C280.507 46.7914 289.437 38.534 289.437 25.3833C289.437 12.2327 280.507 3.97532 266.5 3.97532H251.208V46.7914H266.5ZM266.133 13.2114C272.739 13.2114 278.733 16.2085 278.733 25.3833C278.733 34.5582 272.739 37.5553 266.133 37.5553H261.912V13.2114H266.133Z" fill="white"/>
<path d="M329.08 46.7914H340.824L318.315 1.28403L295.745 46.7914H307.489L311.464 38.534H325.043L329.08 46.7914ZM318.315 19.7561L323.025 30.6436H313.544L318.315 19.7561Z" fill="white"/>
<path d="M371.165 3.97532L362.785 20.0619L354.466 3.97532H342.539L357.525 29.4203V46.7914H368.106V29.3591L383.092 3.97532H371.165Z" fill="white"/>
<path d="M398.332 31.7446L391.114 36.9437C393.928 43.1826 400.778 48.137 409.158 48.137C417.232 48.137 425 43.3661 425 34.6194C425 27.5853 420.046 23.5484 414.051 21.4687C408.118 19.3891 404.632 17.86 404.632 14.924C404.632 13.0279 406.161 11.621 409.097 11.621C412.4 11.621 415.03 13.6395 416.926 16.6978L424.817 12.2939C422.553 7.88993 417.599 2.99667 408.975 2.99667C400.656 2.99667 394.05 7.5841 394.05 15.2298C394.05 23.5484 401.268 26.8513 405.488 28.4416C411.666 30.7659 414.051 31.9281 414.051 35.1087C414.051 37.7388 411.911 39.3291 408.852 39.3291C404.509 39.3291 400.962 36.3932 398.332 31.7446Z" fill="white"/>
<path d="M139.856 54.1313V96.9473H149.826V79.7597H165.239V71.4412H149.826V63.0615H165.851V54.1313H139.856Z" fill="white"/>
<path d="M177.334 75.5393C177.334 88.7511 186.937 98.293 200.394 98.293C213.85 98.293 223.453 88.7511 223.453 75.5393C223.453 62.3275 213.605 53.1526 200.394 53.1526C187.365 53.1526 177.334 62.3275 177.334 75.5393ZM188.283 75.5393C188.283 67.9547 193.115 62.6333 200.394 62.6333C207.856 62.6333 212.443 67.9547 212.443 75.5393C212.443 83.1239 207.672 88.4453 200.394 88.4453C193.115 88.4453 188.283 83.1239 188.283 75.5393Z" fill="white"/>
<path d="M236.132 54.1313V96.9473H246.469V82.1452H249.65L258.825 96.9473H270.997L259.864 80.7995C265.492 78.6587 268.428 74.0101 268.428 68.1382C268.428 59.8808 262.678 54.1313 251.729 54.1313H236.132ZM250.995 62.9391C255.155 62.9391 257.662 64.9576 257.662 68.5052C257.662 72.0528 255.155 74.0713 250.995 74.0713H246.469V62.9391H250.995Z" fill="white"/>
<path d="M139.856 104.287V147.103H149.826V129.916H165.239V121.597H149.826V113.217H165.851V104.287H139.856Z" fill="white"/>
<path d="M179.475 104.287V133.035C179.475 143.8 186.998 148.877 196.662 148.877C206.327 148.877 213.911 143.8 213.911 133.035V104.287H203.574V132.301C203.574 136.644 201.25 139.58 196.662 139.58C192.075 139.58 189.812 136.644 189.812 132.301V104.287H179.475Z" fill="white"/>
<path d="M224.503 113.584H236.247V147.103H246.645V113.584H258.389V104.287H224.503V113.584Z" fill="white"/>
<path d="M268.882 104.287V133.035C268.882 143.8 276.405 148.877 286.07 148.877C295.734 148.877 303.318 143.8 303.318 133.035V104.287H292.981V132.301C292.981 136.644 290.657 139.58 286.07 139.58C281.482 139.58 279.219 136.644 279.219 132.301V104.287H268.882Z" fill="white"/>
<path d="M318.192 104.287V147.103H328.529V132.301H331.71L340.885 147.103H353.057L341.924 130.955C347.552 128.815 350.488 124.166 350.488 118.294C350.488 110.037 344.738 104.287 333.789 104.287H318.192ZM333.055 113.095C337.215 113.095 339.723 115.114 339.723 118.661C339.723 122.209 337.215 124.227 333.055 124.227H328.529V113.095H333.055Z" fill="white"/>
<path d="M363.911 104.287V147.103H392.353V138.601H373.881V128.815H391.13V120.435H373.881V112.789H392.353V104.287H363.911Z" fill="white"/>
<path d="M0 113.034H14.7715L5.78017 149.856H34.0388L43.0301 113.034H66.3649L57.5876 149.856H85.6321L94.6235 113.034H119.243V87.1307H100.832L107.04 61.6551H127.806V35.7514H113.248L122.026 0H93.9812L85.2039 35.7514H61.6551L70.4324 0H42.1738L33.3965 35.7514H8.56321V61.6551H27.1882L20.9799 87.1307H0V113.034ZM47.5258 88.4151L54.3764 60.3706H80.7083L73.8577 88.4151H47.5258Z" fill="#36DC6C"/>
<path d="M21.892 185.021V178.261H40.3C40.4733 181.138 40.1787 183.859 39.416 186.425C38.6533 188.955 37.4747 191.191 35.88 193.133C34.2853 195.074 32.292 196.599 29.9 197.709C27.5427 198.783 24.804 199.321 21.684 199.321C17.836 199.321 14.404 198.506 11.388 196.877C8.40667 195.247 6.04933 192.994 4.316 190.117C2.61733 187.205 1.768 183.825 1.768 179.977C1.768 176.129 2.652 172.783 4.42 169.941C6.188 167.063 8.59733 164.845 11.648 163.285C14.6987 161.725 18.148 160.945 21.996 160.945C25.844 160.945 29.12 161.759 31.824 163.389C34.528 164.983 36.7293 167.046 38.428 169.577L30.576 173.633C29.744 172.211 28.6347 171.015 27.248 170.045C25.896 169.074 24.1453 168.589 21.996 168.589C19.9853 168.589 18.1307 169.039 16.432 169.941C14.768 170.842 13.4333 172.142 12.428 173.841C11.4573 175.539 10.972 177.585 10.972 179.977C10.972 182.369 11.44 184.449 12.376 186.217C13.3467 187.95 14.664 189.302 16.328 190.273C17.992 191.209 19.8813 191.677 21.996 191.677C24.6653 191.677 26.78 191.053 28.34 189.805C29.9 188.522 30.9747 186.927 31.564 185.021H21.892ZM48.7996 161.777H62.0596C66.7049 161.777 70.2236 162.886 72.6156 165.105C75.0422 167.323 76.2556 170.183 76.2556 173.685C76.2556 176.181 75.6316 178.382 74.3836 180.289C73.1702 182.161 71.3676 183.547 68.9756 184.449L78.4396 198.177H68.0916L60.2916 185.593H57.5876V198.177H48.7996V161.777ZM61.4356 169.265H57.5876V178.729H61.4356C63.2036 178.729 64.5902 178.313 65.5956 177.481C66.6009 176.649 67.1036 175.487 67.1036 173.997C67.1036 172.471 66.6009 171.31 65.5956 170.513C64.5902 169.681 63.2036 169.265 61.4356 169.265ZM85.0675 161.777H109.248V169.005H93.5435V175.505H108.208V182.629H93.5435V190.949H109.248V198.177H85.0675V161.777ZM144.116 161.777H152.592V199.997L127.476 177.741V198.177H119V159.957L144.116 182.213V161.777ZM160.754 179.977C160.754 177.169 161.239 174.603 162.21 172.281C163.215 169.958 164.602 167.947 166.37 166.249C168.173 164.55 170.253 163.25 172.61 162.349C175.002 161.413 177.585 160.945 180.358 160.945C183.166 160.945 185.766 161.413 188.158 162.349C190.55 163.25 192.613 164.55 194.346 166.249C196.114 167.947 197.483 169.958 198.454 172.281C199.459 174.603 199.962 177.169 199.962 179.977C199.962 182.785 199.477 185.367 198.506 187.725C197.57 190.082 196.218 192.127 194.45 193.861C192.682 195.594 190.602 196.946 188.21 197.917C185.853 198.853 183.235 199.321 180.358 199.321C177.515 199.321 174.898 198.853 172.506 197.917C170.114 196.946 168.034 195.594 166.266 193.861C164.498 192.127 163.129 190.082 162.158 187.725C161.222 185.367 160.754 182.785 160.754 179.977ZM170.062 179.977C170.062 182.126 170.478 184.033 171.31 185.697C172.177 187.326 173.39 188.609 174.95 189.545C176.51 190.481 178.313 190.949 180.358 190.949C182.438 190.949 184.241 190.481 185.766 189.545C187.291 188.609 188.47 187.326 189.302 185.697C190.169 184.033 190.602 182.126 190.602 179.977C190.602 177.827 190.186 175.938 189.354 174.309C188.522 172.645 187.343 171.345 185.818 170.409C184.293 169.473 182.473 169.005 180.358 169.005C178.313 169.005 176.51 169.473 174.95 170.409C173.39 171.345 172.177 172.645 171.31 174.309C170.478 175.938 170.062 177.827 170.062 179.977ZM236.533 187.933C236.533 191.538 235.25 194.155 232.685 195.785C230.154 197.379 226.722 198.177 222.389 198.177H208.141V161.777H221.557C224.053 161.777 226.272 162.123 228.213 162.817C230.154 163.475 231.68 164.498 232.789 165.885C233.898 167.237 234.453 168.953 234.453 171.033C234.453 172.801 233.985 174.326 233.049 175.609C232.113 176.891 230.83 177.897 229.201 178.625C231.281 179.353 233.014 180.479 234.401 182.005C235.822 183.495 236.533 185.471 236.533 187.933ZM220.569 168.589H216.929V176.233H220.569C222.094 176.233 223.273 175.886 224.105 175.193C224.937 174.499 225.353 173.546 225.353 172.333C225.353 171.119 224.937 170.201 224.105 169.577C223.273 168.918 222.094 168.589 220.569 168.589ZM216.929 191.365H221.401C223.1 191.365 224.521 191.018 225.665 190.325C226.844 189.631 227.433 188.418 227.433 186.685C227.433 185.09 226.844 183.981 225.665 183.357C224.521 182.698 223.1 182.369 221.401 182.369H216.929V191.365ZM245.272 161.777H254.06V190.585H268.672V198.177H245.272V161.777ZM275.345 161.777H299.525V169.005H283.821V175.505H298.485V182.629H283.821V190.949H299.525V198.177H275.345V161.777Z" fill="#36DC6C"/>
</svg>
