<svg width="53" height="54" viewBox="0 0 53 54" fill="none" xmlns="http://www.w3.org/2000/svg">
<path d="M40.525 12.7H40.5505M13.75 1H39.25C46.2916 1 52 6.8203 52 14V40C52 47.1797 46.2916 53 39.25 53H13.75C6.70837 53 1 47.1797 1 40V14C1 6.8203 6.70837 1 13.75 1ZM36.7 25.362C37.0147 27.5258 36.6522 29.7358 35.6641 31.6774C34.676 33.6191 33.1126 35.1937 31.1962 36.1771C29.2798 37.1606 27.1081 37.5029 24.9899 37.1554C22.8717 36.8079 20.9149 35.7882 19.3979 34.2414C17.8808 32.6946 16.8807 30.6995 16.5399 28.5397C16.1991 26.38 16.5348 24.1657 17.4994 22.2118C18.4639 20.2578 20.0082 18.6637 21.9125 17.6562C23.8169 16.6487 25.9843 16.2791 28.1065 16.6C30.2713 16.9273 32.2754 17.9558 33.8228 19.5336C35.3703 21.1114 36.379 23.1548 36.7 25.362Z" stroke="#36DC6C" stroke-width="2" stroke-linecap="round" stroke-linejoin="round"/>
</svg>
