<svg width="28" height="28" viewBox="0 0 28 28" fill="none" xmlns="http://www.w3.org/2000/svg">
<path d="M11.5864 15.208C12.1046 15.9016 12.7659 16.4755 13.5252 16.8907C14.2845 17.306 15.1242 17.5529 15.9872 17.6148C16.8502 17.6767 17.7165 17.552 18.5272 17.2493C19.3379 16.9466 20.074 16.4729 20.6857 15.8604L24.3062 12.2363C25.4053 11.0971 26.0135 9.57135 25.9998 7.98765C25.986 6.40394 25.3514 4.889 24.2327 3.76911C23.1139 2.64922 21.6005 2.01399 20.0184 2.00023C18.4363 1.98647 16.912 2.59528 15.774 3.69554L13.6983 5.76126M16.4136 12.792C15.8954 12.0984 15.2341 11.5245 14.4748 11.1093C13.7155 10.694 12.8758 10.4471 12.0128 10.3852C11.1498 10.3233 10.2835 10.448 9.47283 10.7507C8.66215 11.0534 7.92598 11.5271 7.31427 12.1396L3.69383 15.7637C2.59468 16.9029 1.98648 18.4287 2.00023 20.0124C2.01398 21.5961 2.64857 23.111 3.76733 24.2309C4.8861 25.3508 6.39951 25.986 7.98162 25.9998C9.56373 26.0135 11.0879 25.4047 12.226 24.3045L14.2896 22.2387" stroke="white" stroke-width="3" stroke-linecap="round" stroke-linejoin="round"/>
</svg>
