<svg width="64" height="54" viewBox="0 0 64 54" fill="none" xmlns="http://www.w3.org/2000/svg">
<path d="M63 1.02914C60.3013 2.98664 57.3132 4.48382 54.1509 5.46301C52.4536 3.45621 50.1979 2.03384 47.6889 1.38827C45.1799 0.742708 42.5386 0.905096 40.1222 1.85347C37.7059 2.80185 35.6311 4.49046 34.1784 6.69093C32.7257 8.89139 31.9653 11.4975 32 14.1569V17.0548C27.0474 17.1869 22.14 16.0574 17.7147 13.767C13.2894 11.4765 9.48362 8.0962 6.63636 3.9271C6.63636 3.9271 -4.63636 30.0087 20.7273 41.6005C14.9233 45.6518 8.00926 47.6831 1 47.3964C26.3636 61.8862 57.3636 47.3964 57.3636 14.0699C57.361 13.2627 57.2856 12.4575 57.1382 11.6646C60.0144 8.74783 62.0441 5.06516 63 1.02914V1.02914Z" stroke="#36DC6C" stroke-width="2" stroke-linecap="round" stroke-linejoin="round"/>
</svg>
